<?xml version="1.0" encoding="UTF-8" standalone="no"?>
<svg
   xmlns:dc="http://purl.org/dc/elements/1.1/"
   xmlns:cc="http://creativecommons.org/ns#"
   xmlns:rdf="http://www.w3.org/1999/02/22-rdf-syntax-ns#"
   xmlns:svg="http://www.w3.org/2000/svg"
   xmlns="http://www.w3.org/2000/svg"
   xmlns:sodipodi="http://sodipodi.sourceforge.net/DTD/sodipodi-0.dtd"
   xmlns:inkscape="http://www.inkscape.org/namespaces/inkscape"
   viewBox="0 0 512 512"
   version="1.1"
   id="svg10"
   sodipodi:docname="calendar-alt.svg"
   width="512"
   height="512"
   inkscape:version="0.92.3 (2405546, 2018-03-11)">
  <metadata
     id="metadata14">
    <rdf:RDF>
      <cc:Work
         rdf:about="">
        <dc:format>image/svg+xml</dc:format>
        <dc:type
           rdf:resource="http://purl.org/dc/dcmitype/StillImage" />
        <dc:title></dc:title>
      </cc:Work>
    </rdf:RDF>
  </metadata>
  <sodipodi:namedview
     pagecolor="#ffffff"
     bordercolor="#666666"
     borderopacity="1"
     objecttolerance="10"
     gridtolerance="10"
     guidetolerance="10"
     inkscape:pageopacity="0"
     inkscape:pageshadow="2"
     inkscape:window-width="928"
     inkscape:window-height="972"
     id="namedview12"
     showgrid="false"
     inkscape:zoom="0.4609375"
     inkscape:cx="-155.66102"
     inkscape:cy="256"
     inkscape:window-x="20"
     inkscape:window-y="60"
     inkscape:window-maximized="0"
     inkscape:current-layer="svg10" />
  <defs
     id="defs4">
    <style
       id="style2">.fa-secondary{opacity:.4}</style>
  </defs>
  <path
     d="m 32,192 v 272 a 48,48 0 0 0 48,48 h 352 a 48,48 0 0 0 48,-48 V 192 Z m 128,244 a 12,12 0 0 1 -12,12 H 108 A 12,12 0 0 1 96,436 v -40 a 12,12 0 0 1 12,-12 h 40 a 12,12 0 0 1 12,12 z m 0,-128 a 12,12 0 0 1 -12,12 H 108 A 12,12 0 0 1 96,308 v -40 a 12,12 0 0 1 12,-12 h 40 a 12,12 0 0 1 12,12 z m 128,128 a 12,12 0 0 1 -12,12 h -40 a 12,12 0 0 1 -12,-12 v -40 a 12,12 0 0 1 12,-12 h 40 a 12,12 0 0 1 12,12 z m 0,-128 a 12,12 0 0 1 -12,12 h -40 a 12,12 0 0 1 -12,-12 v -40 a 12,12 0 0 1 12,-12 h 40 a 12,12 0 0 1 12,12 z m 128,128 a 12,12 0 0 1 -12,12 h -40 a 12,12 0 0 1 -12,-12 v -40 a 12,12 0 0 1 12,-12 h 40 a 12,12 0 0 1 12,12 z m 0,-128 a 12,12 0 0 1 -12,12 h -40 a 12,12 0 0 1 -12,-12 v -40 a 12,12 0 0 1 12,-12 h 40 a 12,12 0 0 1 12,12 z M 336,128 h 32 a 16,16 0 0 0 16,-16 V 16 A 16,16 0 0 0 368,0 h -32 a 16,16 0 0 0 -16,16 v 96 a 16,16 0 0 0 16,16 z m -192,0 h 32 a 16,16 0 0 0 16,-16 V 16 A 16,16 0 0 0 176,0 h -32 a 16,16 0 0 0 -16,16 v 96 a 16,16 0 0 0 16,16 z"
     class="fa-secondary"
     id="path6"
     inkscape:connector-curvature="0"
     style="opacity:0.4" />
  <path
     d="m 480,112 v 80 H 32 V 112 A 48,48 0 0 1 80,64 h 48 v 48 a 16,16 0 0 0 16,16 h 32 a 16,16 0 0 0 16,-16 V 64 h 128 v 48 a 16,16 0 0 0 16,16 h 32 a 16,16 0 0 0 16,-16 V 64 h 48 a 48,48 0 0 1 48,48 z"
     class="fa-primary"
     id="path8"
     inkscape:connector-curvature="0" />
</svg>
