<?xml version="1.0" encoding="UTF-8" standalone="no"?>
<svg
   xmlns:dc="http://purl.org/dc/elements/1.1/"
   xmlns:cc="http://creativecommons.org/ns#"
   xmlns:rdf="http://www.w3.org/1999/02/22-rdf-syntax-ns#"
   xmlns:svg="http://www.w3.org/2000/svg"
   xmlns="http://www.w3.org/2000/svg"
   xmlns:sodipodi="http://sodipodi.sourceforge.net/DTD/sodipodi-0.dtd"
   xmlns:inkscape="http://www.inkscape.org/namespaces/inkscape"
   viewBox="0 0 512 512"
   version="1.1"
   id="svg10"
   sodipodi:docname="user.svg"
   inkscape:version="0.92.3 (2405546, 2018-03-11)"
   width="512"
   height="512">
  <metadata
     id="metadata14">
    <rdf:RDF>
      <cc:Work
         rdf:about="">
        <dc:format>image/svg+xml</dc:format>
        <dc:type
           rdf:resource="http://purl.org/dc/dcmitype/StillImage" />
        <dc:title />
      </cc:Work>
    </rdf:RDF>
  </metadata>
  <sodipodi:namedview
     pagecolor="#ffffff"
     bordercolor="#666666"
     borderopacity="1"
     objecttolerance="10"
     gridtolerance="10"
     guidetolerance="10"
     inkscape:pageopacity="0"
     inkscape:pageshadow="2"
     inkscape:window-width="1918"
     inkscape:window-height="1012"
     id="namedview12"
     showgrid="false"
     inkscape:zoom="0.92187498"
     inkscape:cx="215.16249"
     inkscape:cy="267.67027"
     inkscape:window-x="0"
     inkscape:window-y="40"
     inkscape:window-maximized="1"
     inkscape:current-layer="svg10" />
  <defs
     id="defs4">
    <style
       id="style2">.fa-secondary{opacity:.4}</style>
  </defs>
  <path
     d="M 356,156 A 100,100 0 1 1 256,56 100,100 0 0 1 356,156 Z"
     class="fa-secondary"
     id="path6"
     inkscape:connector-curvature="0"
     style="opacity:0.4;stroke-width:0.78125" />
  <path
     d="m 326,281 h -13.04687 a 136.01563,136.01562 0 0 1 -113.90626,0 H 186 A 105.02344,105.02344 0 0 0 81,386 v 32.5 a 37.5,37.5 0 0 0 37.5,37.5 h 275 A 37.5,37.5 0 0 0 431,418.5 V 386 A 105.02344,105.02344 0 0 0 326,281 Z"
     class="fa-primary"
     id="path8"
     inkscape:connector-curvature="0"
     style="stroke-width:0.78125" />
</svg>
