<?xml version="1.0" encoding="UTF-8" standalone="no"?>
<svg
   xmlns:dc="http://purl.org/dc/elements/1.1/"
   xmlns:cc="http://creativecommons.org/ns#"
   xmlns:rdf="http://www.w3.org/1999/02/22-rdf-syntax-ns#"
   xmlns:svg="http://www.w3.org/2000/svg"
   xmlns="http://www.w3.org/2000/svg"
   xmlns:sodipodi="http://sodipodi.sourceforge.net/DTD/sodipodi-0.dtd"
   xmlns:inkscape="http://www.inkscape.org/namespaces/inkscape"
   viewBox="0 0 512 512"
   version="1.1"
   id="svg10"
   sodipodi:docname="memory.svg"
   width="512"
   height="512"
   inkscape:version="0.92.3 (2405546, 2018-03-11)">
  <metadata
     id="metadata14">
    <rdf:RDF>
      <cc:Work
         rdf:about="">
        <dc:format>image/svg+xml</dc:format>
        <dc:type
           rdf:resource="http://purl.org/dc/dcmitype/StillImage" />
        <dc:title />
      </cc:Work>
    </rdf:RDF>
  </metadata>
  <sodipodi:namedview
     pagecolor="#ffffff"
     bordercolor="#666666"
     borderopacity="1"
     objecttolerance="10"
     gridtolerance="10"
     guidetolerance="10"
     inkscape:pageopacity="0"
     inkscape:pageshadow="2"
     inkscape:window-width="1920"
     inkscape:window-height="1014"
     id="namedview12"
     showgrid="false"
     inkscape:pagecheckerboard="true"
     borderlayer="false"
     fit-margin-top="0"
     fit-margin-left="0"
     fit-margin-right="0"
     fit-margin-bottom="0"
     inkscape:zoom="0.921875"
     inkscape:cx="118.59295"
     inkscape:cy="341.0443"
     inkscape:window-x="0"
     inkscape:window-y="40"
     inkscape:window-maximized="1"
     inkscape:current-layer="svg10"
     inkscape:showpageshadow="false"
     showborder="true" />
  <defs
     id="defs4">
    <style
       id="style2">.fa-secondary{opacity:.4}</style>
  </defs>
  <path
     d="M 512,155.952 V 128 A 25.6,25.6 0 0 0 486.4,102.4 H 25.6 A 25.6,25.6 0 0 0 0,128 v 27.952 A 38.288,38.288 0 0 1 25.6,192 38.288,38.288 0 0 1 0,228.048 V 307.2 h 512 v -79.152 a 38.184,38.184 0 0 1 0,-72.096 z M 179.2,256 H 128 V 153.6 h 51.2 z m 102.4,0 H 230.4 V 153.6 h 51.2 z M 384,256 H 332.8 V 153.6 H 384 Z"
     class="fa-secondary"
     id="path6"
     inkscape:connector-curvature="0"
     style="opacity:0.6;stroke-width:0.80000001;fill:#00ff00" />
  <path
     d="M 179.2,153.6 H 128 V 256 h 51.2 z m 102.4,0 H 230.4 V 256 h 51.2 z m 102.4,0 H 332.8 V 256 H 384 Z M 0,332.8 v 76.8 h 51.2 v -21.336 a 12.8,12.8 0 0 1 25.6,0 V 409.6 h 102.4 v -21.336 a 12.8,12.8 0 1 1 25.6,0 V 409.6 h 102.4 v -21.336 a 12.8,12.8 0 1 1 25.6,0 V 409.6 h 102.4 v -21.336 a 12.8,12.8 0 1 1 25.6,0 V 409.6 H 512 v -76.8 z"
     class="fa-primary"
     id="path8"
     inkscape:connector-curvature="0"
     style="stroke-width:0.80000001;fill:#ffffff" />
</svg>
