<?xml version="1.0" encoding="UTF-8" standalone="no"?>
<!-- Created with Inkscape (http://www.inkscape.org/) -->

<svg
   xmlns:dc="http://purl.org/dc/elements/1.1/"
   xmlns:cc="http://creativecommons.org/ns#"
   xmlns:rdf="http://www.w3.org/1999/02/22-rdf-syntax-ns#"
   xmlns:svg="http://www.w3.org/2000/svg"
   xmlns="http://www.w3.org/2000/svg"
   xmlns:sodipodi="http://sodipodi.sourceforge.net/DTD/sodipodi-0.dtd"
   xmlns:inkscape="http://www.inkscape.org/namespaces/inkscape"
   height="200"
   width="200"
   version="1.1"
   viewBox="0 0 52.916666 52.916669"
   id="svg11"
   sodipodi:docname="minimize_unfocused_pressed.svg"
   inkscape:version="0.92.3 (2405546, 2018-03-11)">
  <defs
     id="defs15" />
  <sodipodi:namedview
     pagecolor="#ffffff"
     bordercolor="#666666"
     inkscape:document-rotation="0"
     borderopacity="1"
     objecttolerance="10"
     gridtolerance="10"
     guidetolerance="10"
     inkscape:pageopacity="0"
     inkscape:pageshadow="2"
     inkscape:window-width="1920"
     inkscape:window-height="1013"
     id="namedview13"
     showgrid="false"
     showguides="true"
     inkscape:guide-bbox="true"
     inkscape:zoom="17.9637"
     inkscape:cx="-2.7140344"
     inkscape:cy="7"
     inkscape:window-x="1920"
     inkscape:window-y="40"
     inkscape:window-maximized="1"
     inkscape:current-layer="svg11">
    <sodipodi:guide
       position="1.6790805,2.6364512"
       orientation="0,1"
       id="guide17"
       inkscape:locked="false" />
    <sodipodi:guide
       position="2.636451,2.2976893"
       orientation="1,0"
       id="guide19"
       inkscape:locked="false" />
  </sodipodi:namedview>
  <metadata
     id="metadata2">
    <rdf:RDF>
      <cc:Work
         rdf:about="">
        <dc:format>image/svg+xml</dc:format>
        <dc:type
           rdf:resource="http://purl.org/dc/dcmitype/StillImage" />
        <dc:title></dc:title>
      </cc:Work>
    </rdf:RDF>
  </metadata>
  <g
     id="titlebutton-minimize-active"
     transform="matrix(0.0406221,0,0,-0.04062254,7.5735257,45.397049)"
     style="fill-rule:evenodd">
    <path
       d="m 464.89,10.287 c 251.8,0 455.93,204.13 455.93,455.92 0,251.8 -204.13,455.93 -455.93,455.93 C 213.09,922.127 8.96,718.007 8.96,466.207 8.9625,214.407 213.09,10.287 464.89,10.287"
       id="path4"
       inkscape:connector-curvature="0"
       style="fill:#fac536" />
    <path
       d="m 464.89,49.063 c 230.39,0 417.15,186.77 417.15,417.15 0,230.39 -186.76,417.15 -417.15,417.15 -230.38,0 -417.15,-186.76 -417.15,-417.15 0,-230.38 186.76,-417.15 417.15,-417.15"
       id="path6"
       inkscape:connector-curvature="0"
       style="fill:#fac536" />
    <path
       d="m 198.73,504.16 h 532.33 c 20.601,0 37.455,-16.853 37.455,-37.458 v -0.992 c 0,-20.604 -16.854,-37.454 -37.455,-37.454 H 198.73 c -20.605,0 -37.455,16.85 -37.455,37.454 v 0.992 c 0,20.605 16.85,37.458 37.455,37.458"
       id="path8"
       inkscape:connector-curvature="0"
       style="fill:#975914" />
  </g>
</svg>
