<?xml version="1.0" encoding="UTF-8" standalone="no"?>
<svg
   xmlns:dc="http://purl.org/dc/elements/1.1/"
   xmlns:cc="http://creativecommons.org/ns#"
   xmlns:rdf="http://www.w3.org/1999/02/22-rdf-syntax-ns#"
   xmlns:svg="http://www.w3.org/2000/svg"
   xmlns="http://www.w3.org/2000/svg"
   xmlns:sodipodi="http://sodipodi.sourceforge.net/DTD/sodipodi-0.dtd"
   xmlns:inkscape="http://www.inkscape.org/namespaces/inkscape"
   viewBox="0 0 512 512"
   version="1.1"
   id="svg10"
   sodipodi:docname="battery-bolt.svg"
   width="512"
   height="512"
   inkscape:version="0.92.3 (2405546, 2018-03-11)">
  <metadata
     id="metadata14">
    <rdf:RDF>
      <cc:Work
         rdf:about="">
        <dc:format>image/svg+xml</dc:format>
        <dc:type
           rdf:resource="http://purl.org/dc/dcmitype/StillImage" />
        <dc:title />
      </cc:Work>
    </rdf:RDF>
  </metadata>
  <sodipodi:namedview
     pagecolor="#ffffff"
     bordercolor="#666666"
     borderopacity="1"
     objecttolerance="10"
     gridtolerance="10"
     guidetolerance="10"
     inkscape:pageopacity="0"
     inkscape:pageshadow="2"
     inkscape:window-width="1920"
     inkscape:window-height="1014"
     id="namedview12"
     showgrid="false"
     inkscape:zoom="0.65186406"
     inkscape:cx="92.868439"
     inkscape:cy="186.57494"
     inkscape:window-x="0"
     inkscape:window-y="40"
     inkscape:window-maximized="1"
     inkscape:current-layer="svg10" />
  <defs
     id="defs4">
    <style
       id="style2">.fa-secondary{opacity:.4}</style>
  </defs>
  <path
     d="m 56,181 h 72.09375 l 5.98437,-50 H 43.5 A 37.5,37.5 0 0 0 6,168.5 v 175 A 37.5,37.5 0 0 0 43.5,381 h 141.10156 l 11.07032,-50 H 56 Z m 431.25,0 H 481 V 168.5 A 37.5,37.5 0 0 0 443.5,131 H 322.70312 l -7.77343,37.5 h 26.05468 A 51.351563,51.351563 0 0 1 374.66406,181 H 431 v 50 h 25 v 50 h -25 v 50 h -91.27344 l -28.60937,50 H 443.5 A 37.5,37.5 0 0 0 481,343.5 V 331 h 6.25 A 18.75,18.75 0 0 0 506,312.25 V 199.75 A 18.75,18.75 0 0 0 487.25,181 Z"
     class="fa-secondary"
     id="path6"
     inkscape:connector-curvature="0"
     style="opacity:0.4;stroke-width:0.78125" />
  <path
     d="M 353.96094,230.60937 243.98437,422.79687 A 14.84375,14.84375 0 0 1 231,431 c -9.57813,0 -16.83594,-9.84375 -14.58594,-20.15625 l 28.78125,-130 h -74.21875 c -9.0625,0 -16.0625,-8.75 -14.84375,-18.59375 l 20,-167.03125 C 177.09375,87.09375 183.48437,81 191,81 h 85 c 9.84375,0 17.03125,10.234375 14.49219,20.625 L 268.85937,206 h 72.125 c 11.54688,0 18.75782,13.75 12.97657,24.60937 z"
     class="fa-primary"
     id="path8"
     inkscape:connector-curvature="0"
     style="fill:#ffc801;fill-opacity:1;stroke-width:0.78125" />
</svg>
