<?xml version="1.0" encoding="UTF-8" standalone="no"?>
<svg
   xmlns:dc="http://purl.org/dc/elements/1.1/"
   xmlns:cc="http://creativecommons.org/ns#"
   xmlns:rdf="http://www.w3.org/1999/02/22-rdf-syntax-ns#"
   xmlns:svg="http://www.w3.org/2000/svg"
   xmlns="http://www.w3.org/2000/svg"
   xmlns:sodipodi="http://sodipodi.sourceforge.net/DTD/sodipodi-0.dtd"
   xmlns:inkscape="http://www.inkscape.org/namespaces/inkscape"
   viewBox="0 0 512 512"
   version="1.1"
   id="svg10"
   sodipodi:docname="battery-full.svg"
   width="512"
   height="512"
   inkscape:version="0.92.3 (2405546, 2018-03-11)">
  <metadata
     id="metadata14">
    <rdf:RDF>
      <cc:Work
         rdf:about="">
        <dc:format>image/svg+xml</dc:format>
        <dc:type
           rdf:resource="http://purl.org/dc/dcmitype/StillImage" />
        <dc:title />
      </cc:Work>
    </rdf:RDF>
  </metadata>
  <sodipodi:namedview
     pagecolor="#ffffff"
     bordercolor="#666666"
     borderopacity="1"
     objecttolerance="10"
     gridtolerance="10"
     guidetolerance="10"
     inkscape:pageopacity="0"
     inkscape:pageshadow="2"
     inkscape:window-width="1918"
     inkscape:window-height="1012"
     id="namedview12"
     showgrid="false"
     inkscape:zoom="1.3037281"
     inkscape:cx="139.85729"
     inkscape:cy="241.3647"
     inkscape:window-x="0"
     inkscape:window-y="40"
     inkscape:window-maximized="1"
     inkscape:current-layer="svg10" />
  <defs
     id="defs4">
    <style
       id="style2">.fa-secondary{opacity:.4}</style>
  </defs>
  <path
     d="M 487.25,181 H 481 V 168.5 A 37.5,37.5 0 0 0 443.5,131 H 43.5 A 37.5,37.5 0 0 0 6,168.5 v 175 A 37.5,37.5 0 0 0 43.5,381 h 400 A 37.5,37.5 0 0 0 481,343.5 V 331 h 6.25 A 18.75,18.75 0 0 0 506,312.25 V 199.75 A 18.75,18.75 0 0 0 487.25,181 Z M 456,281 h -25 v 50 H 56 V 181 h 375 v 50 h 25 z"
     class="fa-secondary"
     id="path6"
     inkscape:connector-curvature="0"
     style="opacity:0.4;stroke-width:0.78125" />
  <path
     d="M 406,306 H 81 V 206 h 325 z"
     class="fa-primary"
     id="path8"
     inkscape:connector-curvature="0"
     style="opacity:1;fill:#95c801;fill-opacity:1;stroke-width:0.78125" />
</svg>
