<?xml version="1.0" encoding="UTF-8" standalone="no"?>
<!-- Created with Inkscape (http://www.inkscape.org/) -->

<svg
   xmlns:dc="http://purl.org/dc/elements/1.1/"
   xmlns:cc="http://creativecommons.org/ns#"
   xmlns:rdf="http://www.w3.org/1999/02/22-rdf-syntax-ns#"
   xmlns:svg="http://www.w3.org/2000/svg"
   xmlns="http://www.w3.org/2000/svg"
   xmlns:sodipodi="http://sodipodi.sourceforge.net/DTD/sodipodi-0.dtd"
   xmlns:inkscape="http://www.inkscape.org/namespaces/inkscape"
   version="1.1"
   id="svg2"
   width="384"
   height="384"
   viewBox="0 0 384 384"
   sodipodi:docname="5_occupied.svg"
   inkscape:version="0.92.3 (2405546, 2018-03-11)">
  <metadata
     id="metadata8">
    <rdf:RDF>
      <cc:Work
         rdf:about="">
        <dc:format>image/svg+xml</dc:format>
        <dc:type
           rdf:resource="http://purl.org/dc/dcmitype/StillImage" />
        <dc:title></dc:title>
      </cc:Work>
    </rdf:RDF>
  </metadata>
  <defs
     id="defs6" />
  <sodipodi:namedview
     pagecolor="#ffffff"
     bordercolor="#666666"
     borderopacity="1"
     objecttolerance="10"
     gridtolerance="10"
     guidetolerance="10"
     inkscape:pageopacity="0"
     inkscape:pageshadow="2"
     inkscape:window-width="1920"
     inkscape:window-height="1014"
     id="namedview4"
     showgrid="false"
     inkscape:zoom="1.5666126"
     inkscape:cx="324.76212"
     inkscape:cy="246.39281"
     inkscape:window-x="0"
     inkscape:window-y="40"
     inkscape:window-maximized="1"
     inkscape:current-layer="svg2"
     inkscape:snap-grids="true"
     inkscape:snap-page="true"
     inkscape:snap-text-baseline="false"
     inkscape:snap-center="false" />
  <g
     id="g854"
     transform="translate(0.22438049)"
     style="display:inline;fill:#00aa88;fill-opacity:0.90196078"
     inkscape:label="panels">
    <rect
       style="display:none;opacity:1;fill:#00aa88;fill-opacity:0.90196078;fill-rule:nonzero;stroke:#873075;stroke-width:0.09817305;stroke-miterlimit:4;stroke-dasharray:none;stroke-opacity:1;paint-order:stroke fill markers"
       id="rect4527"
       width="298.0495"
       height="39.437077"
       x="42.75087"
       y="334.23938"
       ry="7.1014662"
       rx="0"
       inkscape:label="panel" />
    <g
       id="g868"
       inkscape:label="panel 3"
       style="display:inline;fill:#00aa88;fill-opacity:0.90196078">
      <rect
         style="display:none;opacity:1;fill:#00aa88;fill-opacity:0.90196078;fill-rule:nonzero;stroke:#873075;stroke-width:0.05194075;stroke-miterlimit:4;stroke-dasharray:none;stroke-opacity:1;paint-order:stroke fill markers"
         id="rect834"
         width="83.429596"
         height="39.437077"
         x="257.39389"
         y="334.23938"
         ry="7.1014662"
         rx="0"
         inkscape:label="panel_1" />
      <rect
         inkscape:label="panel_2"
         rx="0"
         ry="7.1014662"
         y="334.23938"
         x="42.727753"
         height="39.437077"
         width="83.429596"
         id="rect836"
         style="display:none;opacity:1;fill:#00aa88;fill-opacity:0.90196078;fill-rule:nonzero;stroke:#873075;stroke-width:0.05194075;stroke-miterlimit:4;stroke-dasharray:none;stroke-opacity:1;paint-order:stroke fill markers" />
      <rect
         style="display:inline;opacity:1;fill:#00aa88;fill-opacity:0.90196078;fill-rule:nonzero;stroke:#873075;stroke-width:0.05194075;stroke-miterlimit:4;stroke-dasharray:none;stroke-opacity:1;paint-order:stroke fill markers"
         id="rect838"
         width="83.429596"
         height="39.437077"
         x="152.68526"
         y="334.23938"
         ry="7.1014662"
         rx="0"
         inkscape:label="panel_3" />
    </g>
  </g>
  <g
     id="g877"
     inkscape:label="group"
     style="display:inline;fill:#00aa88;fill-opacity:0.90052353">
    <g
       id="g883"
       style="display:none;fill:#00aa88;fill-opacity:0.90052353">
      <path
         style="display:none;opacity:1;fill:#00aa88;fill-opacity:0.90052353;fill-rule:nonzero;stroke:#873075;stroke-width:0.2164713;stroke-miterlimit:4;stroke-dasharray:none;stroke-opacity:1;paint-order:stroke fill markers;image-rendering:auto"
         mask="none"
         d="M 59.228516,0.10742188 C 26.415855,0.10742188 0,26.523274 0,59.335938 V 260.22266 c 0,32.81266 26.415855,59.22851 59.228516,59.22851 H 324.77148 C 357.58415,319.45117 384,293.03532 384,260.22266 V 59.335938 C 384,26.523274 357.58415,0.10742188 324.77148,0.10742188 Z M 27.888672,108.99805 h 22.058594 l 15.304687,54.35351 15.396485,-54.35351 h 22.013672 v 101.5625 H 86.275391 V 136.27734 L 70.789062,191.03711 H 59.806641 L 44.320312,136.27734 v 74.28321 h -16.43164 z m 91.835938,0 h 46.77344 v 19.79687 h -29.44141 v 18.91016 h 27.68555 v 19.79687 h -27.68555 v 23.26367 h 30.43164 v 19.79493 h -47.76367 z m 63.02344,0 h 18.27734 c 10.204,0 17.79735,1.11181 22.7793,3.33398 5.01196,2.17682 9.3036,5.8956 12.875,11.15625 3.15123,4.5804 5.49284,9.86335 7.02343,15.84961 1.5306,5.98626 2.29493,12.76632 2.29493,20.33984 0,7.66423 -0.76433,14.51332 -2.29493,20.54493 -1.53059,5.98625 -3.8722,11.26921 -7.02343,15.84961 -3.60141,5.26065 -7.92287,9.00243 -12.96485,11.22461 -5.04197,2.17682 -12.6055,3.26367 -22.68945,3.26367 h -18.27734 z m 76.53125,0 h 17.33203 v 101.5625 H 259.2793 Z m 51.27539,0 h 20.66211 l 24.89453,101.5625 h -17.42188 l -4.23047,-18.50196 h -27.10156 l -4.27734,18.50196 H 285.6582 Z m -110.47461,19.79687 v 61.9707 h 6.21289 c 7.08277,0 12.48557,-2.65298 16.20703,-7.95898 3.75147,-5.306 5.62695,-13.01576 5.62695,-23.12891 0,-10.06779 -1.86057,-17.73153 -5.58203,-22.99218 -3.72146,-5.26065 -9.13917,-7.89063 -16.25195,-7.89063 z m 120.82812,4.01367 -9.22851,40.40625 h 18.41211 z"
         id="rect4976"
         inkscape:connector-curvature="0" />
    </g>
    <g
       id="g839"
       style="display:none;fill:#00aa88;fill-opacity:0.90052353">
      <path
         style="display:none;opacity:1;fill:#00aa88;fill-opacity:0.90052353;fill-rule:nonzero;stroke:#873075;stroke-width:0.2164713;stroke-miterlimit:4;stroke-dasharray:none;stroke-opacity:1;paint-order:stroke fill markers;image-rendering:auto"
         mask="none"
         d="M 59.228516,0.10742188 C 26.415855,0.10742188 0,26.523274 0,59.335938 V 260.22266 c 0,32.81266 26.415855,59.22851 59.228516,59.22851 H 324.77148 C 357.58415,319.45117 384,293.03532 384,260.22266 V 59.335938 C 384,26.523274 357.58415,0.10742188 324.77148,0.10742188 Z M 53.794922,107.16211 c 10.804231,0 19.268227,4.67148 25.390625,14.01367 6.122398,9.34219 9.183594,22.24482 9.183594,38.70703 0,16.41686 -3.061196,29.29648 -9.183594,38.63867 -6.122398,9.3422 -14.586394,14.01172 -25.390625,14.01172 -10.774219,0 -19.236263,-4.66952 -25.388672,-14.01172 -6.122398,-9.34219 -9.183594,-22.22181 -9.183594,-38.63867 0,-16.46221 3.061196,-29.36484 9.183594,-38.70703 6.152409,-9.34219 14.614453,-14.01367 25.388672,-14.01367 z m 39.617187,1.83594 h 61.943361 v 19.79687 h -22.2832 v 81.76563 H 115.74023 V 128.79492 H 93.412109 Z m 70.857421,0 h 17.33203 v 38.70703 h 25.57032 v -38.70703 h 17.33007 v 101.5625 h -17.33007 v -43.0586 h -25.57032 v 43.0586 h -17.33203 z m 77.25,0 h 46.77344 v 19.79687 h -29.44141 v 18.91016 h 27.68555 v 19.79687 h -27.68555 v 23.26367 h 30.43164 v 19.79493 h -47.76367 z m 63.02539,0 h 19.35742 l 24.44336,69.6582 v -69.6582 h 16.43164 v 101.5625 h -19.35742 l -24.44531,-69.65821 v 69.65821 H 304.54492 Z M 53.794922,126.14062 c -5.282069,0 -9.377923,2.9482 -12.289063,8.84376 -2.91114,5.89555 -4.367187,14.19573 -4.367187,24.89843 0,10.65736 1.456047,18.93257 4.367187,24.82813 2.91114,5.89556 7.006994,8.84375 12.289063,8.84375 5.31208,0 9.424797,-2.94819 12.335937,-8.84375 2.91114,-5.89556 4.367188,-14.17077 4.367188,-24.82813 0,-10.7027 -1.456048,-19.00288 -4.367188,-24.89843 -2.91114,-5.89556 -7.023857,-8.84376 -12.335937,-8.84376 z"
         id="path834"
         inkscape:connector-curvature="0" />
    </g>
    <g
       id="g846"
       style="display:inline;fill:#00aa88;fill-opacity:0.90052353">
      <path
         style="display:inline;opacity:1;fill:#00aa88;fill-opacity:0.90052353;fill-rule:nonzero;stroke:#873075;stroke-width:0.2164713;stroke-miterlimit:4;stroke-dasharray:none;stroke-opacity:1;paint-order:stroke fill markers;image-rendering:auto"
         mask="none"
         d="M 59.228516,0.10742188 C 26.415855,0.10742188 0,26.523274 0,59.335938 V 260.22266 c 0,32.81266 26.415855,59.22851 59.228516,59.22851 H 324.77148 C 357.58415,319.45117 384,293.03532 384,260.22266 V 59.335938 C 384,26.523274 357.58415,0.10742188 324.77148,0.10742188 Z M 299.25391,107.16211 c 3.69144,0 7.48909,0.43131 11.39062,1.29297 3.90153,0.81631 7.93774,2.06227 12.10938,3.74023 v 21.4961 c -3.69145,-2.49428 -7.29332,-4.37472 -10.80469,-5.64453 -3.51138,-1.26982 -6.828,-1.90625 -9.94922,-1.90626 -4.14162,1e-5 -7.20282,0.86263 -9.18359,2.58594 -1.98078,1.72332 -2.97071,4.39931 -2.97071,8.02735 0,2.72102 0.65995,4.85261 1.98047,6.39453 1.35053,1.49656 3.7816,2.78854 7.29297,3.87695 l 7.38281,2.24414 c 7.47293,2.26752 12.78627,5.7141 15.9375,10.33985 3.15124,4.62574 4.72657,11.20263 4.72657,19.72851 0,11.20156 -2.20742,19.5458 -6.61914,25.0332 -4.38172,5.44206 -11.08756,8.16211 -20.1211,8.16211 -4.26167,0 -8.5384,-0.61147 -12.83008,-1.83593 -4.29168,-1.22447 -8.58332,-3.03784 -12.875,-5.44141 v -22.10938 c 4.29168,3.44664 8.43227,6.05556 12.42383,7.82422 4.02158,1.72332 7.89378,2.58399 11.61524,2.58399 3.78148,0 6.67671,-0.95271 8.6875,-2.85742 2.01078,-1.90472 3.01757,-4.62478 3.01757,-8.16211 0,-3.17453 -0.69172,-5.62434 -2.07226,-7.34766 -1.35053,-1.72332 -4.06684,-3.26449 -8.14844,-4.625 l -6.70703,-2.24609 c -6.72263,-2.17683 -11.6444,-5.64446 -14.76563,-10.40625 -3.09121,-4.7618 -4.63671,-11.17958 -4.63671,-19.25196 0,-10.11315 2.16073,-17.88997 6.48242,-23.33203 4.32169,-5.44205 10.53354,-8.16406 18.63672,-8.16406 z m -242.419926,1.83594 h 46.773436 v 19.79687 H 74.166016 v 18.91016 h 27.685544 v 19.79687 H 74.166016 v 43.0586 H 56.833984 Z m 63.025396,0 h 17.33203 v 101.5625 h -17.33203 z m 34.39257,0 h 17.33203 v 81.76757 h 30.43164 v 19.79493 h -47.76367 z m 58.70313,0 h 46.77344 v 19.79687 h -29.44141 v 18.91016 h 27.68555 v 19.79687 h -27.68555 v 23.26367 h 30.43164 v 19.79493 h -47.76367 z"
         id="path841"
         inkscape:connector-curvature="0" />
    </g>
    <g
       id="g853"
       style="display:none;fill:#00aa88;fill-opacity:0.90052353">
      <path
         style="display:inline;opacity:1;fill:#00aa88;fill-opacity:0.90052353;fill-rule:nonzero;stroke:#873075;stroke-width:0.2164713;stroke-miterlimit:4;stroke-dasharray:none;stroke-opacity:1;paint-order:stroke fill markers;image-rendering:auto"
         mask="none"
         d="M 59.228516,0.10742188 C 26.415855,0.10742188 0,26.523274 0,59.335938 V 260.22266 c 0,32.81266 26.415855,59.22851 59.228516,59.22851 H 324.77148 C 357.58415,319.45117 384,293.03532 384,260.22266 V 59.335938 C 384,26.523274 357.58415,0.10742188 324.77148,0.10742188 Z M 79.095703,108.99805 h 16.611328 l 11.615239,73.80859 11.52343,-73.80859 h 16.70313 l 11.52344,73.80859 11.61523,-73.80859 h 16.47656 l -15.84765,101.5625 h -19.98633 l -12.20117,-77.20899 -12.06446,77.20899 H 95.076172 Z m 107.457027,0 h 46.77344 v 19.79687 h -29.4414 v 18.91016 h 27.68554 v 19.79687 h -27.68554 v 23.26367 h 30.43164 v 19.79493 h -47.76368 z m 63.02539,0 h 26.01954 c 9.33365,0 16.08618,2.13159 20.25781,6.39453 4.20164,4.26294 6.30273,11.08902 6.30273,20.47656 0,4.9432 -0.76627,9.16036 -2.29687,12.65234 -1.5306,3.44664 -3.75097,6.00954 -6.66211,7.6875 3.72146,1.63262 6.60373,4.64789 8.64453,9.04688 2.0408,4.39899 3.06055,9.79504 3.06055,16.18945 0,9.7957 -2.19055,17.09715 -6.57227,21.9043 -4.38171,4.80715 -11.04478,7.21094 -19.98828,7.21094 h -28.76563 z m 17.33204,17.82422 v 21.49609 h 9.58789 c 2.73107,0 4.80234,-0.90669 6.21289,-2.7207 1.41055,-1.81402 2.11523,-4.49001 2.11523,-8.02735 0,-3.49198 -0.70468,-6.14496 -2.11523,-7.95898 -1.41055,-1.85937 -3.48182,-2.78906 -6.21289,-2.78906 z m 0,39.31835 v 26.59766 h 10.17382 c 3.48137,0 6.09135,-1.10986 7.83204,-3.33203 1.77069,-2.22217 2.65625,-5.57867 2.65625,-10.06836 0,-4.39899 -0.87065,-7.68646 -2.61133,-9.86328 -1.74068,-2.22217 -4.36558,-3.33398 -7.87696,-3.33399 z"
         id="path848"
         inkscape:connector-curvature="0" />
    </g>
    <g
       id="g860"
       style="display:none;fill:#00aa88;fill-opacity:0.90052353">
      <path
         style="display:inline;opacity:1;fill:#00aa88;fill-opacity:0.90052353;fill-rule:nonzero;stroke:#873075;stroke-width:0.2164713;stroke-miterlimit:4;stroke-dasharray:none;stroke-opacity:1;paint-order:stroke fill markers;image-rendering:auto"
         mask="none"
         d="M 59.228516,0.10742188 C 26.415855,0.10742188 0,26.523274 0,59.335938 V 260.22266 c 0,32.81266 26.415855,59.22851 59.228516,59.22851 H 324.77148 C 357.58415,319.45117 384,293.03532 384,260.22266 V 59.335938 C 384,26.523274 357.58415,0.10742188 324.77148,0.10742188 Z M 91.003906,108.99805 H 109.2793 c 10.20399,0 17.79734,1.11181 22.77929,3.33398 5.01197,2.17682 9.30361,5.8956 12.875,11.15625 3.15124,4.5804 5.49284,9.86335 7.02344,15.84961 1.5306,5.98626 2.29492,12.76632 2.29492,20.33984 0,7.66423 -0.76432,14.51332 -2.29492,20.54493 -1.5306,5.98625 -3.8722,11.26921 -7.02344,15.84961 -3.60141,5.26065 -7.92287,9.00243 -12.96484,11.22461 -5.04197,2.17682 -12.6055,3.26367 -22.68945,3.26367 H 91.003906 Z m 76.529294,0 h 46.77344 v 19.79687 h -29.44141 v 18.91016 h 27.68555 v 19.79687 h -27.68555 v 23.26367 h 30.43165 v 19.79493 H 167.5332 Z m 55.01172,0 h 17.42188 l 17.82617,74.96484 17.7832,-74.96484 h 17.41992 l -24.89453,101.5625 h -20.66211 z m -114.21094,19.79687 v 61.9707 h 6.2129 c 7.08277,0 12.48557,-2.65298 16.20703,-7.95898 3.75147,-5.306 5.62695,-13.01576 5.62695,-23.12891 0,-10.06779 -1.86057,-17.73153 -5.58203,-22.99218 -3.72146,-5.26065 -9.13917,-7.89063 -16.25195,-7.89063 z"
         id="path855"
         inkscape:connector-curvature="0" />
    </g>
    <g
       id="g871"
       style="display:none;fill:#00aa88;fill-opacity:0.90052353">
      <path
         style="display:none;opacity:1;fill:#00aa88;fill-opacity:0.90052353;fill-rule:nonzero;stroke:#873075;stroke-width:0.2164713;stroke-miterlimit:4;stroke-dasharray:none;stroke-opacity:1;paint-order:stroke fill markers;image-rendering:auto"
         mask="none"
         d="M 59.228516,0.10742188 C 26.415855,0.10742188 0,26.523274 0,59.335938 V 260.22266 c 0,32.81266 26.415855,59.22851 59.228516,59.22851 H 324.77148 C 357.58415,319.45117 384,293.03532 384,260.22266 V 59.335938 C 384,26.523274 357.58415,0.10742188 324.77148,0.10742188 Z M 202.04688,82.189453 h 14.67578 L 181.88672,250.29492 H 167.27734 Z M 152.93359,109.1582 v 24.97071 l -63.720699,33.16211 63.720699,32.96289 v 24.9707 L 68.193359,178.97852 V 155.4043 Z m 78.13282,0 84.74023,46.2461 v 23.57422 l -84.74023,46.24609 v -24.9707 l 63.78711,-32.96289 -63.78711,-33.16211 z"
         id="path866"
         inkscape:connector-curvature="0" />
    </g>
    <g
       id="g878"
       style="display:none;fill:#00aa88;fill-opacity:0.90052353">
      <path
         style="display:inline;opacity:1;fill:#00aa88;fill-opacity:0.90052353;fill-rule:nonzero;stroke:#873075;stroke-width:0.2164713;stroke-miterlimit:4;stroke-dasharray:none;stroke-opacity:1;paint-order:stroke fill markers;image-rendering:auto"
         mask="none"
         d="M 59.228516,0.10742188 C 26.415855,0.10742188 0,26.523274 0,59.335938 V 260.22266 c 0,32.81266 26.415855,59.22851 59.228516,59.22851 H 324.77148 C 357.58415,319.45117 384,293.03532 384,260.22266 V 59.335938 C 384,26.523274 357.58415,0.10742188 324.77148,0.10742188 Z M 202.04688,82.189453 h 14.67578 L 181.88672,250.29492 H 167.27734 Z M 152.93359,109.1582 v 24.97071 l -63.720699,33.16211 63.720699,32.96289 v 24.9707 L 68.193359,178.97852 V 155.4043 Z m 78.13282,0 84.74023,46.2461 v 23.57422 l -84.74023,46.24609 v -24.9707 l 63.78711,-32.96289 -63.78711,-33.16211 z"
         id="path873"
         inkscape:connector-curvature="0" />
    </g>
  </g>
</svg>
