<?xml version="1.0" encoding="UTF-8" standalone="no"?>
<svg
   xmlns:dc="http://purl.org/dc/elements/1.1/"
   xmlns:cc="http://creativecommons.org/ns#"
   xmlns:rdf="http://www.w3.org/1999/02/22-rdf-syntax-ns#"
   xmlns:svg="http://www.w3.org/2000/svg"
   xmlns="http://www.w3.org/2000/svg"
   xmlns:sodipodi="http://sodipodi.sourceforge.net/DTD/sodipodi-0.dtd"
   xmlns:inkscape="http://www.inkscape.org/namespaces/inkscape"
   viewBox="0 0 512 512"
   version="1.1"
   id="svg4"
   sodipodi:docname="search.svg"
   inkscape:version="0.92.3 (2405546, 2018-03-11)">
  <metadata
     id="metadata10">
    <rdf:RDF>
      <cc:Work
         rdf:about="">
        <dc:format>image/svg+xml</dc:format>
        <dc:type
           rdf:resource="http://purl.org/dc/dcmitype/StillImage" />
      </cc:Work>
    </rdf:RDF>
  </metadata>
  <defs
     id="defs8" />
  <sodipodi:namedview
     pagecolor="#ffffff"
     bordercolor="#666666"
     borderopacity="1"
     objecttolerance="10"
     gridtolerance="10"
     guidetolerance="10"
     inkscape:pageopacity="0"
     inkscape:pageshadow="2"
     inkscape:window-width="926"
     inkscape:window-height="982"
     id="namedview6"
     showgrid="false"
     inkscape:zoom="0.4609375"
     inkscape:cx="256"
     inkscape:cy="256"
     inkscape:window-x="20"
     inkscape:window-y="47"
     inkscape:window-maximized="0"
     inkscape:current-layer="svg4" />
  <path
     d="m 453.25873,422.32274 -94.83912,-94.83912 c -1.79679,-1.79679 -4.14042,-2.73424 -6.6403,-2.73424 h -10.312 c 24.60818,-28.51423 39.52932,-65.6218 39.52932,-106.24481 0,-89.76125 -72.73082,-162.49207 -162.49206,-162.49207 -89.76125,0 -162.49207,72.73082 -162.49207,162.49207 0,89.76124 72.73082,162.49206 162.49207,162.49206 40.62301,0 77.73058,-14.92114 106.24481,-39.52932 v 10.312 c 0,2.49988 1.01557,4.84351 2.73424,6.6403 l 94.83912,94.83912 c 3.67169,3.67169 9.6089,3.67169 13.2806,0 l 17.65539,-17.65539 c 3.67169,-3.6717 3.67169,-9.60891 0,-13.2806 z M 218.50457,343.49846 c -69.05913,0 -124.993901,-55.93477 -124.993901,-124.99389 0,-69.05913 55.934771,-124.993901 124.993901,-124.993901 69.05912,0 124.99389,55.934771 124.99389,124.993901 0,69.05912 -55.93477,124.99389 -124.99389,124.99389 z"
     id="path2"
     inkscape:connector-curvature="0"
     style="stroke-width:0.78121185;fill:#ffffff" />
</svg>
