<?xml version="1.0" encoding="UTF-8" standalone="no"?>
<svg
   xmlns:dc="http://purl.org/dc/elements/1.1/"
   xmlns:cc="http://creativecommons.org/ns#"
   xmlns:rdf="http://www.w3.org/1999/02/22-rdf-syntax-ns#"
   xmlns:svg="http://www.w3.org/2000/svg"
   xmlns="http://www.w3.org/2000/svg"
   xmlns:sodipodi="http://sodipodi.sourceforge.net/DTD/sodipodi-0.dtd"
   xmlns:inkscape="http://www.inkscape.org/namespaces/inkscape"
   viewBox="0 0 512 512"
   version="1.1"
   id="svg10"
   sodipodi:docname="calendar.svg"
   width="512"
   height="512"
   inkscape:version="0.92.3 (2405546, 2018-03-11)">
  <metadata
     id="metadata14">
    <rdf:RDF>
      <cc:Work
         rdf:about="">
        <dc:format>image/svg+xml</dc:format>
        <dc:type
           rdf:resource="http://purl.org/dc/dcmitype/StillImage" />
        <dc:title />
      </cc:Work>
    </rdf:RDF>
  </metadata>
  <sodipodi:namedview
     pagecolor="#ffffff"
     bordercolor="#666666"
     borderopacity="1"
     objecttolerance="10"
     gridtolerance="10"
     guidetolerance="10"
     inkscape:pageopacity="0"
     inkscape:pageshadow="2"
     inkscape:window-width="928"
     inkscape:window-height="972"
     id="namedview12"
     showgrid="false"
     inkscape:zoom="0.65186406"
     inkscape:cx="253.90079"
     inkscape:cy="274.89093"
     inkscape:window-x="20"
     inkscape:window-y="60"
     inkscape:window-maximized="0"
     inkscape:current-layer="svg10" />
  <defs
     id="defs4">
    <style
       id="style2">.fa-secondary{opacity:.4}</style>
  </defs>
  <path
     d="M 81.000001,206 V 418.5 A 37.5,37.5 0 0 0 118.5,456 h 275 A 37.5,37.5 0 0 0 431,418.5 V 206 Z M 318.5,156 h 25 A 12.5,12.5 0 0 0 356,143.5 V 68.500001 A 12.5,12.5 0 0 0 343.5,56 h -25 A 12.5,12.5 0 0 0 306,68.500001 V 143.5 a 12.5,12.5 0 0 0 12.5,12.5 z m -150,0 h 25 A 12.5,12.5 0 0 0 206,143.5 V 68.500001 A 12.5,12.5 0 0 0 193.5,56 h -25 A 12.5,12.5 0 0 0 156,68.500001 V 143.5 a 12.5,12.5 0 0 0 12.5,12.5 z"
     class="fa-secondary"
     id="path6"
     inkscape:connector-curvature="0"
     style="opacity:1;fill:#e6e6e6;stroke-width:0.78125" />
  <path
     d="M 431,143.5 V 206 H 81.000001 V 143.5 A 37.5,37.5 0 0 1 118.5,106 H 156 v 37.5 a 12.5,12.5 0 0 0 12.5,12.5 h 25 A 12.5,12.5 0 0 0 206,143.5 V 106 h 100 v 37.5 a 12.5,12.5 0 0 0 12.5,12.5 h 25 A 12.5,12.5 0 0 0 356,143.5 V 106 h 37.5 a 37.5,37.5 0 0 1 37.5,37.5 z"
     class="fa-primary"
     id="path8"
     inkscape:connector-curvature="0"
     style="fill:#333333;stroke-width:0.78125" />
</svg>
