<?xml version="1.0" encoding="UTF-8" standalone="no"?>
<!-- Created with Inkscape (http://www.inkscape.org/) -->

<svg
   xmlns:dc="http://purl.org/dc/elements/1.1/"
   xmlns:cc="http://creativecommons.org/ns#"
   xmlns:rdf="http://www.w3.org/1999/02/22-rdf-syntax-ns#"
   xmlns:svg="http://www.w3.org/2000/svg"
   xmlns="http://www.w3.org/2000/svg"
   xmlns:sodipodi="http://sodipodi.sourceforge.net/DTD/sodipodi-0.dtd"
   xmlns:inkscape="http://www.inkscape.org/namespaces/inkscape"
   height="200"
   width="200"
   version="1.1"
   viewBox="0 0 52.916666 52.916669"
   id="svg13"
   sodipodi:docname="close_focused_pressed.svg"
   inkscape:version="0.92.3 (2405546, 2018-03-11)">
  <defs
     id="defs17" />
  <sodipodi:namedview
     pagecolor="#ffffff"
     bordercolor="#666666"
     inkscape:document-rotation="0"
     borderopacity="1"
     objecttolerance="10"
     gridtolerance="10"
     guidetolerance="10"
     inkscape:pageopacity="0"
     inkscape:pageshadow="2"
     inkscape:window-width="1920"
     inkscape:window-height="1013"
     id="namedview15"
     showgrid="false"
     showguides="true"
     inkscape:guide-bbox="true"
     inkscape:zoom="1.1227313"
     inkscape:cx="-250.52931"
     inkscape:cy="-73.743446"
     inkscape:window-x="1920"
     inkscape:window-y="40"
     inkscape:window-maximized="1"
     inkscape:current-layer="svg13">
    <sodipodi:guide
       position="2.6511798,3.9767699"
       orientation="1,0"
       id="guide19"
       inkscape:locked="false" />
    <sodipodi:guide
       position="2.4891633,2.65118"
       orientation="0,1"
       id="guide21"
       inkscape:locked="false" />
  </sodipodi:namedview>
  <metadata
     id="metadata2">
    <rdf:RDF>
      <cc:Work
         rdf:about="">
        <dc:format>image/svg+xml</dc:format>
        <dc:type
           rdf:resource="http://purl.org/dc/dcmitype/StillImage" />
        <dc:title></dc:title>
      </cc:Work>
    </rdf:RDF>
  </metadata>
  <g
     id="titlebutton-close-active"
     transform="matrix(0.04062254,0,0,-0.04062254,7.6962043,45.397049)"
     style="fill-rule:evenodd">
    <path
       d="m 461.87,10.287 c 251.8,0 455.92,204.13 455.92,455.92 0,251.8 -204.12,455.93 -455.92,455.93 -251.8,0 -455.93,-204.12 -455.93,-455.93 0,-251.8 204.13,-455.92 455.93,-455.92"
       id="path4"
       inkscape:connector-curvature="0"
       style="fill:#d52735" />
    <path
       d="m 461.87,49.063 c 230.38,0 417.14,186.77 417.14,417.15 0,230.39 -186.76,417.15 -417.14,417.15 -230.39,0 -417.15,-186.76 -417.15,-417.15 0,-230.38 186.76,-417.15 417.15,-417.15"
       id="path6"
       inkscape:connector-curvature="0"
       style="fill:#d52735" />
    <path
       d="m 246.82,304.84 376.41,376.41 c 14.567,14.571 38.4,14.571 52.975,0 l 0.69653,-0.69973 c 14.571,-14.567 14.571,-38.404 0.004,-52.972 l -376.4,-376.41 c -14.571,-14.571 -38.404,-14.571 -52.971,0 l -0.704,0.69547 c -14.567,14.571 -14.567,38.404 0,52.975"
       id="path8"
       inkscape:connector-curvature="0"
       style="fill:#9f1d2b" />
    <path
       d="M 300.5,681.25 676.9,304.84 c 14.566,-14.566 14.566,-38.404 0,-52.975 l -0.7008,-0.69547 c -14.571,-14.571 -38.403,-14.571 -52.971,0 l -376.41,376.42 c -14.572,14.567 -14.572,38.404 0,52.972 l 0.69974,0.69973 c 14.571,14.571 38.404,14.571 52.975,0"
       id="path10"
       inkscape:connector-curvature="0"
       style="fill:#9f1d2b" />
  </g>
</svg>
