<?xml version="1.0" encoding="UTF-8" standalone="no"?>
<svg
   xmlns:dc="http://purl.org/dc/elements/1.1/"
   xmlns:cc="http://creativecommons.org/ns#"
   xmlns:rdf="http://www.w3.org/1999/02/22-rdf-syntax-ns#"
   xmlns:svg="http://www.w3.org/2000/svg"
   xmlns="http://www.w3.org/2000/svg"
   xmlns:sodipodi="http://sodipodi.sourceforge.net/DTD/sodipodi-0.dtd"
   xmlns:inkscape="http://www.inkscape.org/namespaces/inkscape"
   viewBox="0 0 512 512"
   version="1.1"
   id="svg10"
   sodipodi:docname="battery-slash.svg"
   width="512"
   height="512"
   inkscape:version="0.92.3 (2405546, 2018-03-11)">
  <metadata
     id="metadata14">
    <rdf:RDF>
      <cc:Work
         rdf:about="">
        <dc:format>image/svg+xml</dc:format>
        <dc:type
           rdf:resource="http://purl.org/dc/dcmitype/StillImage" />
        <dc:title />
      </cc:Work>
    </rdf:RDF>
  </metadata>
  <sodipodi:namedview
     pagecolor="#ffffff"
     bordercolor="#666666"
     borderopacity="1"
     objecttolerance="10"
     gridtolerance="10"
     guidetolerance="10"
     inkscape:pageopacity="0"
     inkscape:pageshadow="2"
     inkscape:window-width="928"
     inkscape:window-height="972"
     id="namedview12"
     showgrid="false"
     inkscape:zoom="0.4609375"
     inkscape:cx="428.47458"
     inkscape:cy="256"
     inkscape:window-x="20"
     inkscape:window-y="60"
     inkscape:window-maximized="0"
     inkscape:current-layer="svg10" />
  <defs
     id="defs4">
    <style
       id="style2">.fa-secondary{opacity:.4}</style>
  </defs>
  <path
     d="m 135.14161,130.9922 h 308.35157 a 37.500002,37.500002 0 0 1 37.5,37.49999 v 12.5 h 6.24999 a 18.75,18.75 0 0 1 18.75001,18.74999 v 112.50001 a 18.75,18.75 0 0 1 -18.75001,18.75 h -6.24999 v 12.49999 a 37.500002,37.500002 0 0 1 -25.10938,35.39844 l -61.96876,-47.89843 h 37.07813 v -50 h 25.00001 v -50 h -25.00001 v -50 H 199.83692 Z M 55.993171,330.99219 V 196.21875 l -48.5390637,-37.5 A 37.007813,37.007813 0 0 0 5.99317,168.49219 V 343.49218 A 37.500002,37.500002 0 0 0 43.493171,380.9922 H 295.05567 l -64.69531,-50.00001 z"
     class="fa-secondary"
     id="path6"
     inkscape:connector-curvature="0"
     style="opacity:0.4;stroke-width:0.78125" />
  <path
     d="M 501.15847,413.88137 41.529189,58.644391 A 12.499267,12.499267 0 0 0 23.975535,60.82395 L 8.6404977,80.580604 A 12.499267,12.499267 0 0 0 10.835682,98.118638 L 470.45715,453.35561 a 12.499267,12.499267 0 0 0 17.55366,-2.17956 l 15.34285,-19.74103 a 12.499267,12.499267 0 0 0 -2.19519,-17.55365 z"
     class="fa-primary"
     id="path8"
     inkscape:connector-curvature="0"
     style="fill:#e60000;fill-opacity:1;stroke-width:0.78120416" />
</svg>
