<?xml version="1.0" encoding="UTF-8" standalone="no"?>
<svg
   xmlns:dc="http://purl.org/dc/elements/1.1/"
   xmlns:cc="http://creativecommons.org/ns#"
   xmlns:rdf="http://www.w3.org/1999/02/22-rdf-syntax-ns#"
   xmlns:svg="http://www.w3.org/2000/svg"
   xmlns="http://www.w3.org/2000/svg"
   xmlns:sodipodi="http://sodipodi.sourceforge.net/DTD/sodipodi-0.dtd"
   xmlns:inkscape="http://www.inkscape.org/namespaces/inkscape"
   viewBox="0 0 512 512"
   version="1.1"
   id="svg10"
   sodipodi:docname="hdd.svg"
   width="512"
   height="512"
   inkscape:version="0.92.3 (2405546, 2018-03-11)">
  <metadata
     id="metadata14">
    <rdf:RDF>
      <cc:Work
         rdf:about="">
        <dc:format>image/svg+xml</dc:format>
        <dc:type
           rdf:resource="http://purl.org/dc/dcmitype/StillImage" />
        <dc:title></dc:title>
      </cc:Work>
    </rdf:RDF>
  </metadata>
  <sodipodi:namedview
     pagecolor="#ffffff"
     bordercolor="#666666"
     borderopacity="1"
     objecttolerance="10"
     gridtolerance="10"
     guidetolerance="10"
     inkscape:pageopacity="0"
     inkscape:pageshadow="2"
     inkscape:window-width="928"
     inkscape:window-height="972"
     id="namedview12"
     showgrid="false"
     inkscape:zoom="0.4609375"
     inkscape:cx="-91.661017"
     inkscape:cy="256"
     inkscape:window-x="20"
     inkscape:window-y="60"
     inkscape:window-maximized="0"
     inkscape:current-layer="svg10" />
  <defs
     id="defs4">
    <style
       id="style2">.fa-secondary{opacity:.4}</style>
  </defs>
  <path
     d="m 341.33333,312.88889 a 28.444444,28.444444 0 1 0 28.44445,28.44444 28.444444,28.444444 0 0 0 -28.44445,-28.44444 z M 497.67111,234.50667 410.88889,104.32889 A 42.666667,42.666667 0 0 0 375.38667,85.333332 H 136.61333 A 42.666667,42.666667 0 0 0 101.11111,104.32889 L 14.328889,234.50667 A 85.333333,85.333333 0 0 0 0,281.84 v 16.82667 A 42.666667,42.666667 0 0 1 42.666667,256 H 469.33333 A 42.666667,42.666667 0 0 1 512,298.66667 V 281.84 a 85.333333,85.333333 0 0 0 -14.32889,-47.33333 z"
     class="fa-secondary"
     id="path6"
     inkscape:connector-curvature="0"
     style="opacity:0.4;stroke-width:0.8888889" />
  <path
     d="M 469.33333,256 H 42.666667 A 42.666667,42.666667 0 0 0 0,298.66667 V 384 a 42.666667,42.666667 0 0 0 42.666667,42.66667 H 469.33333 A 42.666667,42.666667 0 0 0 512,384 V 298.66667 A 42.666667,42.666667 0 0 0 469.33333,256 Z m -128,113.77778 a 28.444444,28.444444 0 1 1 28.44445,-28.44445 28.444444,28.444444 0 0 1 -28.44445,28.44445 z m 85.33334,0 a 28.444444,28.444444 0 1 1 28.44444,-28.44445 28.444444,28.444444 0 0 1 -28.44444,28.44445 z"
     class="fa-primary"
     id="path8"
     inkscape:connector-curvature="0"
     style="stroke-width:0.8888889" />
</svg>
