<?xml version="1.0" encoding="UTF-8" standalone="no"?>
<svg
   xmlns:dc="http://purl.org/dc/elements/1.1/"
   xmlns:cc="http://creativecommons.org/ns#"
   xmlns:rdf="http://www.w3.org/1999/02/22-rdf-syntax-ns#"
   xmlns:svg="http://www.w3.org/2000/svg"
   xmlns="http://www.w3.org/2000/svg"
   xmlns:sodipodi="http://sodipodi.sourceforge.net/DTD/sodipodi-0.dtd"
   xmlns:inkscape="http://www.inkscape.org/namespaces/inkscape"
   viewBox="0 0 512 512"
   version="1.1"
   id="svg10"
   sodipodi:docname="keyboard.svg"
   width="512"
   height="512"
   inkscape:version="0.92.3 (2405546, 2018-03-11)">
  <metadata
     id="metadata14">
    <rdf:RDF>
      <cc:Work
         rdf:about="">
        <dc:format>image/svg+xml</dc:format>
        <dc:type
           rdf:resource="http://purl.org/dc/dcmitype/StillImage" />
        <dc:title></dc:title>
      </cc:Work>
    </rdf:RDF>
  </metadata>
  <sodipodi:namedview
     pagecolor="#ffffff"
     bordercolor="#666666"
     borderopacity="1"
     objecttolerance="10"
     gridtolerance="10"
     guidetolerance="10"
     inkscape:pageopacity="0"
     inkscape:pageshadow="2"
     inkscape:window-width="928"
     inkscape:window-height="972"
     id="namedview12"
     showgrid="false"
     inkscape:zoom="0.4609375"
     inkscape:cx="-91.661017"
     inkscape:cy="256"
     inkscape:window-x="20"
     inkscape:window-y="60"
     inkscape:window-maximized="0"
     inkscape:current-layer="svg10" />
  <defs
     id="defs4">
    <style
       id="style2">.fa-secondary{opacity:.4}</style>
  </defs>
  <path
     d="M 469.33333,85.333331 H 42.666667 A 42.666667,42.666667 0 0 0 0,128 v 256 a 42.666667,42.666667 0 0 0 42.666667,42.66667 H 469.33333 A 42.666667,42.666667 0 0 0 512,384 V 128 A 42.666667,42.666667 0 0 0 469.33333,85.333331 Z M 312.88889,152.88889 a 10.666667,10.666667 0 0 1 10.66667,-10.66667 h 35.55555 a 10.666667,10.666667 0 0 1 10.66667,10.66667 v 35.55555 a 10.666667,10.666667 0 0 1 -10.66667,10.66667 h -35.55555 a 10.666667,10.666667 0 0 1 -10.66667,-10.66667 z m 88.88889,74.66667 a 10.666667,10.666667 0 0 1 10.66666,10.66666 v 35.55556 a 10.666667,10.666667 0 0 1 -10.66666,10.66666 h -35.55556 a 10.666667,10.666667 0 0 1 -10.66666,-10.66666 v -35.55556 a 10.666667,10.666667 0 0 1 10.66666,-10.66666 z m -74.66667,10.66666 v 35.55556 a 10.666667,10.666667 0 0 1 -10.66667,10.66666 h -35.55555 a 10.666667,10.666667 0 0 1 -10.66667,-10.66666 v -35.55556 a 10.666667,10.666667 0 0 1 10.66667,-10.66666 h 35.55555 a 10.666667,10.666667 0 0 1 10.66667,10.66666 z m -99.55555,-85.33333 a 10.666667,10.666667 0 0 1 10.66666,-10.66667 h 35.55556 a 10.666667,10.666667 0 0 1 10.66666,10.66667 v 35.55555 a 10.666667,10.666667 0 0 1 -10.66666,10.66667 h -35.55556 a 10.666667,10.666667 0 0 1 -10.66666,-10.66667 z m 14.22222,85.33333 v 35.55556 a 10.666667,10.666667 0 0 1 -10.66667,10.66666 h -35.55555 a 10.666667,10.666667 0 0 1 -10.66667,-10.66666 v -35.55556 a 10.666667,10.666667 0 0 1 10.66667,-10.66666 h 35.55555 a 10.666667,10.666667 0 0 1 10.66667,10.66666 z m -99.55556,-85.33333 a 10.666667,10.666667 0 0 1 10.66667,-10.66667 h 35.55555 a 10.666667,10.666667 0 0 1 10.66667,10.66667 v 35.55555 a 10.666667,10.666667 0 0 1 -10.66667,10.66667 h -35.55555 a 10.666667,10.666667 0 0 1 -10.66667,-10.66667 z m 14.22222,85.33333 v 35.55556 a 10.666667,10.666667 0 0 1 -10.66666,10.66666 H 110.22222 A 10.666667,10.666667 0 0 1 99.55556,273.77778 v -35.55556 a 10.666667,10.666667 0 0 1 10.66666,-10.66666 h 35.55556 a 10.666667,10.666667 0 0 1 10.66666,10.66666 z M 56.888889,152.88889 a 10.666667,10.666667 0 0 1 10.666667,-10.66667 h 35.555554 a 10.666667,10.666667 0 0 1 10.66667,10.66667 v 35.55555 a 10.666667,10.666667 0 0 1 -10.66667,10.66667 H 67.555556 A 10.666667,10.666667 0 0 1 56.888889,188.44444 Z m 56.888891,206.22222 a 10.666667,10.666667 0 0 1 -10.66667,10.66667 H 67.555556 A 10.666667,10.666667 0 0 1 56.888889,359.11111 v -35.55555 a 10.666667,10.666667 0 0 1 10.666667,-10.66667 h 35.555554 a 10.666667,10.666667 0 0 1 10.66667,10.66667 z m 256,0 a 10.666667,10.666667 0 0 1 -10.66667,10.66667 H 152.88889 a 10.666667,10.666667 0 0 1 -10.66667,-10.66667 v -35.55555 a 10.666667,10.666667 0 0 1 10.66667,-10.66667 h 206.22222 a 10.666667,10.666667 0 0 1 10.66667,10.66667 z m 85.33333,0 a 10.666667,10.666667 0 0 1 -10.66667,10.66667 h -35.55555 a 10.666667,10.666667 0 0 1 -10.66667,-10.66667 v -35.55555 a 10.666667,10.666667 0 0 1 10.66667,-10.66667 h 35.55555 a 10.666667,10.666667 0 0 1 10.66667,10.66667 z m 0,-170.66667 a 10.666667,10.666667 0 0 1 -10.66667,10.66667 h -35.55555 a 10.666667,10.666667 0 0 1 -10.66667,-10.66667 v -35.55555 a 10.666667,10.666667 0 0 1 10.66667,-10.66667 h 35.55555 a 10.666667,10.666667 0 0 1 10.66667,10.66667 z"
     class="fa-secondary"
     id="path6"
     inkscape:connector-curvature="0"
     style="opacity:0.4;stroke-width:0.8888889" />
  <path
     d="m 145.77778,227.55556 h -35.55556 a 10.666667,10.666667 0 0 0 -10.66666,10.66666 v 35.55556 a 10.666667,10.666667 0 0 0 10.66666,10.66666 h 35.55556 a 10.666667,10.666667 0 0 0 10.66666,-10.66666 v -35.55556 a 10.666667,10.666667 0 0 0 -10.66666,-10.66666 z m 85.33333,0 h -35.55555 a 10.666667,10.666667 0 0 0 -10.66667,10.66666 v 35.55556 a 10.666667,10.666667 0 0 0 10.66667,10.66666 h 35.55555 a 10.666667,10.666667 0 0 0 10.66667,-10.66666 v -35.55556 a 10.666667,10.666667 0 0 0 -10.66667,-10.66666 z m 85.33333,0 h -35.55555 a 10.666667,10.666667 0 0 0 -10.66667,10.66666 v 35.55556 a 10.666667,10.666667 0 0 0 10.66667,10.66666 h 35.55555 a 10.666667,10.666667 0 0 0 10.66667,-10.66666 v -35.55556 a 10.666667,10.666667 0 0 0 -10.66667,-10.66666 z m 96,46.22222 v -35.55556 a 10.666667,10.666667 0 0 0 -10.66666,-10.66666 h -35.55556 a 10.666667,10.666667 0 0 0 -10.66666,10.66666 v 35.55556 a 10.666667,10.666667 0 0 0 10.66666,10.66666 h 35.55556 a 10.666667,10.666667 0 0 0 10.66666,-10.66666 z m 32,39.11111 h -35.55555 a 10.666667,10.666667 0 0 0 -10.66667,10.66667 v 35.55555 a 10.666667,10.666667 0 0 0 10.66667,10.66667 h 35.55555 a 10.666667,10.666667 0 0 0 10.66667,-10.66667 v -35.55555 a 10.666667,10.666667 0 0 0 -10.66667,-10.66667 z m 0,-170.66667 h -35.55555 a 10.666667,10.666667 0 0 0 -10.66667,10.66667 v 35.55555 a 10.666667,10.666667 0 0 0 10.66667,10.66667 h 35.55555 a 10.666667,10.666667 0 0 0 10.66667,-10.66667 v -35.55555 a 10.666667,10.666667 0 0 0 -10.66667,-10.66667 z m -120.88888,56.88889 h 35.55555 a 10.666667,10.666667 0 0 0 10.66667,-10.66667 v -35.55555 a 10.666667,10.666667 0 0 0 -10.66667,-10.66667 h -35.55555 a 10.666667,10.666667 0 0 0 -10.66667,10.66667 v 35.55555 a 10.666667,10.666667 0 0 0 10.66667,10.66667 z m -85.33334,0 h 35.55556 a 10.666667,10.666667 0 0 0 10.66666,-10.66667 v -35.55555 a 10.666667,10.666667 0 0 0 -10.66666,-10.66667 h -35.55556 a 10.666667,10.666667 0 0 0 -10.66666,10.66667 v 35.55555 a 10.666667,10.666667 0 0 0 10.66666,10.66667 z m -85.33333,0 h 35.55555 a 10.666667,10.666667 0 0 0 10.66667,-10.66667 v -35.55555 a 10.666667,10.666667 0 0 0 -10.66667,-10.66667 h -35.55555 a 10.666667,10.666667 0 0 0 -10.66667,10.66667 v 35.55555 a 10.666667,10.666667 0 0 0 10.66667,10.66667 z m -85.333334,0 h 35.555554 a 10.666667,10.666667 0 0 0 10.66667,-10.66667 V 152.88889 A 10.666667,10.666667 0 0 0 103.11111,142.22222 H 67.555556 a 10.666667,10.666667 0 0 0 -10.666667,10.66667 v 35.55555 a 10.666667,10.666667 0 0 0 10.666667,10.66667 z M 103.11111,312.88889 H 67.555556 a 10.666667,10.666667 0 0 0 -10.666667,10.66667 v 35.55555 a 10.666667,10.666667 0 0 0 10.666667,10.66667 h 35.555554 a 10.666667,10.666667 0 0 0 10.66667,-10.66667 v -35.55555 a 10.666667,10.666667 0 0 0 -10.66667,-10.66667 z"
     class="fa-primary"
     id="path8"
     inkscape:connector-curvature="0"
     style="stroke-width:0.8888889" />
</svg>
