<?xml version="1.0" encoding="UTF-8" standalone="no"?>
<!-- Created with Inkscape (http://www.inkscape.org/) -->

<svg
   xmlns:dc="http://purl.org/dc/elements/1.1/"
   xmlns:cc="http://creativecommons.org/ns#"
   xmlns:rdf="http://www.w3.org/1999/02/22-rdf-syntax-ns#"
   xmlns:svg="http://www.w3.org/2000/svg"
   xmlns="http://www.w3.org/2000/svg"
   xmlns:sodipodi="http://sodipodi.sourceforge.net/DTD/sodipodi-0.dtd"
   xmlns:inkscape="http://www.inkscape.org/namespaces/inkscape"
   version="1.1"
   id="svg2"
   width="200"
   height="200"
   viewBox="0 0 200 200"
   sodipodi:docname="focus_active.svg"
   inkscape:version="0.92.3 (2405546, 2018-03-11)">
  <metadata
     id="metadata8">
    <rdf:RDF>
      <cc:Work
         rdf:about="">
        <dc:format>image/svg+xml</dc:format>
        <dc:type
           rdf:resource="http://purl.org/dc/dcmitype/StillImage" />
        <dc:title />
      </cc:Work>
    </rdf:RDF>
  </metadata>
  <defs
     id="defs6" />
  <sodipodi:namedview
     pagecolor="#ffffff"
     bordercolor="#666666"
     borderopacity="1"
     objecttolerance="10"
     gridtolerance="10"
     guidetolerance="10"
     inkscape:pageopacity="0"
     inkscape:pageshadow="2"
     inkscape:window-width="1920"
     inkscape:window-height="1013"
     id="namedview4"
     showgrid="false"
     inkscape:measure-start="363.91,409.642"
     inkscape:measure-end="359.045,700.575"
     inkscape:zoom="7.9999999"
     inkscape:cx="154.06183"
     inkscape:cy="134.4174"
     inkscape:window-x="1920"
     inkscape:window-y="40"
     inkscape:window-maximized="1"
     inkscape:current-layer="svg2"
     inkscape:snap-others="false" />
  <path
     inkscape:connector-curvature="0"
     id="rect923"
     d="m 79.105469,30 c -4.695742,0 -8.47461,3.780821 -8.47461,8.476562 0,4.695742 3.778868,8.47461 8.47461,8.47461 h 1.419922 V 92.089844 L 70.5,107.48438 h 59 L 119.47461,92.089844 V 46.951172 h 1.41992 c 4.69574,0 8.47461,-3.778868 8.47461,-8.47461 C 129.36914,33.780821 125.59027,30 120.89453,30 Z m 8.035156,20.716797 h 2.589844 V 84.5 h -2.589844 z"
     style="display:inline;opacity:1;fill:#ff0000;fill-opacity:1;stroke-width:0.19252093" />
  <path
     style="display:inline;opacity:1;fill:#800080;fill-opacity:1;stroke-width:0.19252093"
     d="m 79.105469,30 c -4.695742,0 -8.47461,3.780821 -8.47461,8.476562 0,4.695742 3.778868,8.47461 8.47461,8.47461 h 1.419922 V 92.089844 L 70.5,107.48438 h 59 L 119.47461,92.089844 V 46.951172 h 1.41992 c 4.69574,0 8.47461,-3.778868 8.47461,-8.47461 C 129.36914,33.780821 125.59027,30 120.89453,30 Z m 8.035156,20.716797 h 2.589844 V 84.5 h -2.589844 z"
     id="path899"
     inkscape:connector-curvature="0" />
  <g
     id="g913"
     style="display:none">
    <path
       sodipodi:insensitive="true"
       sodipodi:type="star"
       style="display:inline;opacity:1;fill:#ff0000;fill-opacity:1"
       id="path953"
       sodipodi:sides="3"
       sodipodi:cx="483.66104"
       sodipodi:cy="1054.3411"
       sodipodi:r1="477.06183"
       sodipodi:r2="238.53091"
       sodipodi:arg1="1.5707963"
       sodipodi:arg2="2.6179939"
       inkscape:flatsided="true"
       inkscape:rounded="0"
       inkscape:randomized="0"
       d="M 483.66105,1531.4029 70.513372,815.81016 l 826.295328,-2e-5 z"
       inkscape:transform-center-y="65.973047"
       transform="matrix(0.0110184,0,0,0.07282571,94.670829,14.531272)"
       inkscape:transform-center-x="-2.0730484e-06" />
    <path
       inkscape:transform-center-x="-2.0730484e-06"
       transform="matrix(0.00991656,0,0,0.06554314,95.203746,21.078145)"
       inkscape:transform-center-y="65.973047"
       d="M 483.66105,1531.4029 70.513372,815.81016 l 826.295328,-2e-5 z"
       inkscape:randomized="0"
       inkscape:rounded="0"
       inkscape:flatsided="true"
       sodipodi:arg2="2.6179939"
       sodipodi:arg1="1.5707963"
       sodipodi:r2="238.53091"
       sodipodi:r1="477.06183"
       sodipodi:cy="1054.3411"
       sodipodi:cx="483.66104"
       sodipodi:sides="3"
       id="path909"
       style="display:inline;opacity:1;fill:#800080;fill-opacity:1"
       sodipodi:type="star" />
  </g>
</svg>
