<?xml version="1.0" encoding="UTF-8" standalone="no"?>
<svg
   xmlns:dc="http://purl.org/dc/elements/1.1/"
   xmlns:cc="http://creativecommons.org/ns#"
   xmlns:rdf="http://www.w3.org/1999/02/22-rdf-syntax-ns#"
   xmlns:svg="http://www.w3.org/2000/svg"
   xmlns="http://www.w3.org/2000/svg"
   xmlns:sodipodi="http://sodipodi.sourceforge.net/DTD/sodipodi-0.dtd"
   xmlns:inkscape="http://www.inkscape.org/namespaces/inkscape"
   viewBox="0 0 512 512"
   version="1.1"
   id="svg10"
   sodipodi:docname="microchip.svg"
   inkscape:version="0.92.3 (2405546, 2018-03-11)">
  <metadata
     id="metadata14">
    <rdf:RDF>
      <cc:Work
         rdf:about="">
        <dc:format>image/svg+xml</dc:format>
        <dc:type
           rdf:resource="http://purl.org/dc/dcmitype/StillImage" />
      </cc:Work>
    </rdf:RDF>
  </metadata>
  <sodipodi:namedview
     pagecolor="#ffffff"
     bordercolor="#666666"
     borderopacity="1"
     objecttolerance="10"
     gridtolerance="10"
     guidetolerance="10"
     inkscape:pageopacity="0"
     inkscape:pageshadow="2"
     inkscape:window-width="1918"
     inkscape:window-height="1011"
     id="namedview12"
     showgrid="false"
     inkscape:zoom="1.3037281"
     inkscape:cx="-32.663479"
     inkscape:cy="238.85137"
     inkscape:window-x="0"
     inkscape:window-y="40"
     inkscape:window-maximized="1"
     inkscape:current-layer="svg10" />
  <defs
     id="defs4">
    <style
       id="style2">.fa-secondary{opacity:.4}</style>
  </defs>
  <path
     d="m 27.09394,195.04256 v 5.54158 H 9.246156 a 5.9492615,5.5415853 0 0 0 -5.9492614,5.5416 v 11.08318 a 5.9492615,5.5415853 0 0 0 5.9492614,5.54157 H 27.09394 v 5.54158 a 5.9492615,5.5415853 0 0 0 5.949262,5.5416 h 41.64483 V 189.501 h -41.64483 a 5.9492615,5.5415853 0 0 0 -5.949262,5.54156 z m 0,-88.66538 v 5.5416 H 9.246156 a 5.9492615,5.5415853 0 0 0 -5.9492614,5.54159 v 11.08317 a 5.9492615,5.5415853 0 0 0 5.9492614,5.54159 H 27.09394 v 5.54158 a 5.9492615,5.5415853 0 0 0 5.949262,5.54159 h 41.64483 v -44.33269 h -41.64483 a 5.9492615,5.5415853 0 0 0 -5.949262,5.54157 z m 477.924,5.5416 h -17.84778 v -5.5416 a 5.9492615,5.5415853 0 0 0 -5.94927,-5.54157 h -41.64482 v 44.33269 h 41.64482 a 5.9492615,5.5415853 0 0 0 5.94927,-5.54159 v -5.54158 h 17.84778 a 5.9492615,5.5415853 0 0 0 5.94927,-5.54159 v -11.08317 a 5.9492615,5.5415853 0 0 0 -5.94927,-5.54159 z m 0,177.33073 h -17.84778 v -5.54158 a 5.9492615,5.5415853 0 0 0 -5.94927,-5.5416 H 439.57607 V 322.499 h 41.64482 a 5.9492615,5.5415853 0 0 0 5.94927,-5.54156 v -5.54158 h 17.84778 a 5.9492615,5.5415853 0 0 0 5.94927,-5.5416 v -11.08318 a 5.9492615,5.5415853 0 0 0 -5.94927,-5.54157 z m 0,-88.66537 h -17.84778 v -5.54158 a 5.9492615,5.5415853 0 0 0 -5.94927,-5.54156 h -41.64482 v 44.33267 h 41.64482 a 5.9492615,5.5415853 0 0 0 5.94927,-5.5416 v -5.54158 h 17.84778 a 5.9492615,5.5415853 0 0 0 5.94927,-5.54157 v -11.08318 a 5.9492615,5.5415853 0 0 0 -5.94927,-5.5416 z m 0,177.33073 h -17.84778 v -5.54157 a 5.9492615,5.5415853 0 0 0 -5.94927,-5.5416 h -41.64482 v 44.33269 h 41.64482 a 5.9492615,5.5415853 0 0 0 5.94927,-5.5416 v -5.54159 h 17.84778 a 5.9492615,5.5415853 0 0 0 5.94927,-5.54157 v -11.08317 a 5.9492615,5.5415853 0 0 0 -5.94927,-5.54159 z m -477.924,-5.54157 v 5.54157 H 9.246156 a 5.9492615,5.5415853 0 0 0 -5.9492614,5.54159 v 11.08317 A 5.9492615,5.5415853 0 0 0 9.246156,400.0812 H 27.09394 v 5.54159 a 5.9492615,5.5415853 0 0 0 5.949262,5.5416 h 41.64483 V 366.8317 h -41.64483 a 5.9492615,5.5415853 0 0 0 -5.949262,5.5416 z m 0,-88.66537 v 5.54158 H 9.246156 a 5.9492615,5.5415853 0 0 0 -5.9492614,5.54157 v 11.08318 a 5.9492615,5.5415853 0 0 0 5.9492614,5.5416 H 27.09394 v 5.54158 a 5.9492615,5.5415853 0 0 0 5.949262,5.54156 h 41.64483 v -44.33267 h -41.64483 a 5.9492615,5.5415853 0 0 0 -5.949262,5.5416 z"
     class="fa-secondary"
     id="path6"
     inkscape:connector-curvature="0"
     style="opacity:1;fill:#008080;stroke-width:0.95696765" />
  <path
     d="M 134.33864,445.81839 A 52.625751,35.590947 0 0 1 81.712885,410.22745 V 101.77256 A 52.625751,35.590947 0 0 1 134.33864,66.181613 h 245.58684 a 52.625751,35.590947 0 0 1 52.62574,35.590947 v 308.45489 a 52.625751,35.590947 0 0 1 -52.62574,35.59094 z"
     class="fa-primary"
     id="path8"
     inkscape:connector-curvature="0"
     style="fill:#666666;stroke-width:0.90162867" />
  <text
     xml:space="preserve"
     style="font-style:normal;font-weight:normal;font-size:44.20028305px;line-height:1.25;font-family:sans-serif;letter-spacing:0px;word-spacing:0px;opacity:1;fill:#ffffff;fill-opacity:1;stroke:none;stroke-width:1.10500705"
     x="107.69711"
     y="304.26852"
     id="text11"><tspan
       sodipodi:role="line"
       id="tspan9"
       x="107.69711"
       y="304.26852"
       style="font-style:normal;font-variant:normal;font-weight:normal;font-stretch:normal;font-size:132.60084534px;line-height:49.25;font-family:sans-serif;-inkscape-font-specification:sans-serif;text-align:start;letter-spacing:16.57510567px;text-anchor:start;fill:#ffffff;stroke-width:1.10500705">CPU</tspan></text>
</svg>
